<svg version="1.1" ID="twitter" xmlns="http://www.w3.org/2000/svg" x="0px" y="0px"
	  viewBox="198.556 198.557 32 32" enable-background="new 198.556 198.557 32 32" xml:space="preserve">
<g>
	<circle fill="none" stroke="#000000" stroke-width="2" cx="214.556" cy="214.557" r="15"/>
	<path fill="#010002" d="M223.279,210.364c-0.586,0.261-1.216,0.436-1.877,0.515c0.675-0.404,1.191-1.045,1.437-1.808
		c-0.633,0.374-1.332,0.646-2.078,0.794c-0.597-0.638-1.445-1.033-2.388-1.033c-1.807,0-3.27,1.465-3.27,3.27
		c0,0.256,0.028,0.506,0.083,0.746c-2.718-0.137-5.128-1.439-6.741-3.418c-0.282,0.482-0.442,1.044-0.442,1.644
		c0,1.136,0.578,2.137,1.454,2.723c-0.535-0.019-1.039-0.166-1.48-0.411v0.041c0,1.584,1.128,2.906,2.623,3.207
		c-0.274,0.074-0.563,0.115-0.861,0.115c-0.212,0-0.416-0.021-0.616-0.062c0.417,1.3,1.624,2.246,3.055,2.272
		c-1.118,0.877-2.529,1.398-4.062,1.398c-0.265,0-0.524-0.017-0.781-0.045c1.448,0.929,3.166,1.471,5.014,1.471
		c6.018,0,9.308-4.983,9.308-9.306l-0.012-0.423C222.286,211.595,222.843,211.019,223.279,210.364z"/>
</g>
</svg>
