<?xml version="1.0" encoding="utf-8"?>
<!-- Generator: Adobe Illustrator 13.0.0, SVG Export Plug-In . SVG Version: 6.00 Build 14948)  -->
<!DOCTYPE svg PUBLIC "-//W3C//DTD SVG 1.1//EN" "http://www.w3.org/Graphics/SVG/1.1/DTD/svg11.dtd">
<svg version="1.1" ID="Layer_1" xmlns="http://www.w3.org/2000/svg" xmlns:xlink="http://www.w3.org/1999/xlink" x="0px" y="0px"
	 width="38px" height="50px" viewBox="0 0 38 50" enable-background="new 0 0 38 50" xml:space="preserve">
<g>
	<path d="M9.494,29.125v-0.027c0-2.788,2.102-5.071,5.113-5.071c1.471,0,2.465,0.393,3.277,0.995c0.225,0.168,0.42,0.476,0.42,0.854
		c0,0.588-0.476,1.05-1.064,1.05c-0.294,0-0.49-0.111-0.645-0.21c-0.602-0.448-1.232-0.7-2.003-0.7
		c-1.652,0-2.843,1.373-2.843,3.054v0.028c0,1.681,1.162,3.081,2.843,3.081c0.911,0,1.513-0.28,2.13-0.771
		c0.168-0.14,0.392-0.237,0.644-0.237c0.547,0,1.009,0.448,1.009,0.994c0,0.336-0.168,0.603-0.364,0.771
		c-0.882,0.771-1.919,1.232-3.487,1.232C11.638,34.168,9.494,31.94,9.494,29.125z"/>
	<path d="M22.88,33.3l-3.18-7.606c-0.07-0.168-0.126-0.336-0.126-0.519c0-0.602,0.477-1.064,1.078-1.064
		c0.561,0,0.925,0.322,1.093,0.757l2.451,6.346l2.479-6.416c0.141-0.35,0.519-0.687,1.037-0.687c0.588,0,1.064,0.448,1.064,1.037
		c0,0.168-0.057,0.35-0.112,0.476L25.457,33.3c-0.224,0.532-0.63,0.854-1.219,0.854h-0.14C23.511,34.154,23.104,33.832,22.88,33.3z"
		/>
</g>
<polygon fill="none" stroke="#000000" stroke-width="2" stroke-linecap="round" stroke-linejoin="round" points="37,15 37,49 1,49
	1,1 23,1 "/>
<polyline fill="none" stroke="#000000" stroke-width="2" stroke-linecap="round" stroke-linejoin="round" points="37,15 23,15 23,1
	"/>
</svg>
